<svg width="113" height="114" viewBox="0 0 113 114" fill="none" xmlns="http://www.w3.org/2000/svg">
<path d="M53 76.5L80 30L88.25 29L59 80L58 82.5V88L62 94.5L64 98L66 100H67L104 35.5L112 34.5L66 113.5L52 90.5L51 89V86.5V81.5L52 79L53 76.5Z" fill="#00D646"/>
<path d="M64 34.5L42 71.5V57L63 24.5L66 22.5L69.5 21.5H84.5L91.9779 22.5H101.5H108L112 26L113 27.5V33L112 34.5L104 35.5L106 31V30L105 29H98H88.25L80 30V29H70L68 30L67 31L66 32L65 33L64 34.5Z" fill="#00D646"/>
<path d="M99 10.5L98 12L91.9779 22.5L84.5 21.5L91 10L92 8L91 6H56.5L55 7L44.5 22L42 25L33 11.5L30 8L28 7H12V0.29661L29.5 0L32 1L34 2L42 12.5L50 2.5L53 0.5L55 0H92L94.5 1L97.5 3.5L99 5V10.5Z" fill="#00D646"/>
<path d="M42 71.4998L0 0.499777L12 0.296387V6.99978V7.49978L42 56.9998V71.4998Z" fill="#00D646"/>
<path d="M88.2539 29H98.2918L102 22.5H91.9766L88.2539 29Z" fill="#003D14"/>
</svg>
