<svg width="827" height="282" viewBox="0 0 827 282" fill="none" xmlns="http://www.w3.org/2000/svg">
<path d="M42.24 74.776L71.68 5.39999H83.84L42.24 99.48L0.64 5.39999H12.8L42.24 74.776ZM143.38 5.39999H154.26V95H143.38V5.39999ZM223.395 5.39999H234.275V95H223.395V5.39999ZM269.475 5.39999H282.915L244.131 47.384L284.835 95H271.395L230.947 47.64L269.475 5.39999ZM352.986 68.12L356.826 57.88H396.506L400.346 68.12H352.986ZM376.41 25.624L361.306 61.208L360.282 63.512L346.97 95H334.81L376.41 0.919998L418.01 95H405.85L392.794 64.28L391.77 61.72L376.41 25.624ZM480.878 67.864C482.926 71.448 485.059 74.6053 487.278 77.336C489.582 80.0667 492.142 82.2 494.958 83.736C497.774 85.272 500.974 86.04 504.558 86.04C509.337 86.04 513.177 84.7173 516.078 82.072C518.979 79.4267 520.43 76.056 520.43 71.96C520.43 67.9493 519.491 64.7493 517.614 62.36C515.737 59.9707 513.262 58.0507 510.19 56.6C507.203 55.064 504.003 53.6987 500.59 52.504C498.371 51.736 495.897 50.7547 493.166 49.56C490.435 48.28 487.833 46.7013 485.358 44.824C482.883 42.8613 480.835 40.472 479.214 37.656C477.678 34.84 476.91 31.384 476.91 27.288C476.91 22.8507 478.019 18.8827 480.238 15.384C482.457 11.8853 485.529 9.15466 489.454 7.19199C493.379 5.14399 497.859 4.12 502.894 4.12C507.758 4.12 511.982 5.05866 515.566 6.936C519.235 8.72799 522.35 11.0747 524.91 13.976C527.47 16.792 529.475 19.7787 530.926 22.936L521.582 28.312C520.473 26.0933 519.065 23.9173 517.358 21.784C515.651 19.6507 513.561 17.9013 511.086 16.536C508.697 15.1707 505.753 14.488 502.254 14.488C497.39 14.488 493.849 15.6827 491.63 18.072C489.411 20.376 488.302 22.9787 488.302 25.88C488.302 28.3547 488.942 30.6587 490.222 32.792C491.502 34.84 493.635 36.8027 496.622 38.68C499.694 40.472 503.833 42.264 509.038 44.056C511.427 44.9093 513.945 46.0187 516.59 47.384C519.235 48.7493 521.667 50.4987 523.886 52.632C526.19 54.68 528.067 57.1973 529.518 60.184C530.969 63.0853 531.694 66.584 531.694 70.68C531.694 74.6053 530.926 78.1467 529.39 81.304C527.939 84.4613 525.891 87.1493 523.246 89.368C520.686 91.5867 517.742 93.2933 514.414 94.488C511.171 95.6827 507.758 96.28 504.174 96.28C499.31 96.28 494.787 95.256 490.606 93.208C486.51 91.0747 482.883 88.3013 479.726 84.888C476.654 81.3893 474.137 77.6773 472.174 73.752L480.878 67.864ZM10.24 190.4H21.12V280H10.24V190.4ZM16.256 200.64V190.4H34.56C40.3627 190.4 45.5253 191.509 50.048 193.728C54.656 195.861 58.2827 198.933 60.928 202.944C63.6587 206.955 65.024 211.733 65.024 217.28C65.024 222.741 63.6587 227.52 60.928 231.616C58.2827 235.627 54.656 238.741 50.048 240.96C45.5253 243.093 40.3627 244.16 34.56 244.16H16.256V233.92H34.56C40.3627 233.92 45.056 232.512 48.64 229.696C52.3093 226.88 54.144 222.741 54.144 217.28C54.144 211.733 52.3093 207.595 48.64 204.864C45.056 202.048 40.3627 200.64 34.56 200.64H16.256ZM145.005 235.84H157.165L189.165 280H175.725L145.005 235.84ZM129.005 190.4H139.885V280H129.005V190.4ZM135.021 200V190.4H153.325C159.128 190.4 164.29 191.509 168.813 193.728C173.421 195.861 177.048 198.933 179.693 202.944C182.424 206.955 183.789 211.733 183.789 217.28C183.789 222.741 182.424 227.52 179.693 231.616C177.048 235.627 173.421 238.741 168.813 240.96C164.29 243.093 159.128 244.16 153.325 244.16H135.021V234.56H153.325C157.165 234.56 160.536 233.877 163.437 232.512C166.424 231.147 168.728 229.184 170.349 226.624C172.056 224.064 172.909 220.949 172.909 217.28C172.909 213.611 172.056 210.496 170.349 207.936C168.728 205.376 166.424 203.413 163.437 202.048C160.536 200.683 157.165 200 153.325 200H135.021ZM257.846 253.12L261.686 242.88H301.366L305.206 253.12H257.846ZM281.27 210.624L266.166 246.208L265.142 248.512L251.83 280H239.67L281.27 185.92L322.87 280H310.71L297.654 249.28L296.63 246.72L281.27 210.624ZM382.41 190.4H393.29V280H382.41V190.4ZM428.49 190.4H441.93L403.146 232.384L443.85 280H430.41L389.962 232.64L428.49 190.4ZM512.001 253.12L515.841 242.88H555.521L559.361 253.12H512.001ZM535.425 210.624L520.321 246.208L519.297 248.512L505.985 280H493.825L535.425 185.92L577.025 280H564.865L551.809 249.28L550.785 246.72L535.425 210.624ZM639.893 252.864C641.941 256.448 644.074 259.605 646.293 262.336C648.597 265.067 651.157 267.2 653.973 268.736C656.789 270.272 659.989 271.04 663.573 271.04C668.352 271.04 672.192 269.717 675.093 267.072C677.994 264.427 679.445 261.056 679.445 256.96C679.445 252.949 678.506 249.749 676.629 247.36C674.752 244.971 672.277 243.051 669.205 241.6C666.218 240.064 663.018 238.699 659.605 237.504C657.386 236.736 654.912 235.755 652.181 234.56C649.45 233.28 646.848 231.701 644.373 229.824C641.898 227.861 639.85 225.472 638.229 222.656C636.693 219.84 635.925 216.384 635.925 212.288C635.925 207.851 637.034 203.883 639.253 200.384C641.472 196.885 644.544 194.155 648.469 192.192C652.394 190.144 656.874 189.12 661.909 189.12C666.773 189.12 670.997 190.059 674.581 191.936C678.25 193.728 681.365 196.075 683.925 198.976C686.485 201.792 688.49 204.779 689.941 207.936L680.597 213.312C679.488 211.093 678.08 208.917 676.373 206.784C674.666 204.651 672.576 202.901 670.101 201.536C667.712 200.171 664.768 199.488 661.269 199.488C656.405 199.488 652.864 200.683 650.645 203.072C648.426 205.376 647.317 207.979 647.317 210.88C647.317 213.355 647.957 215.659 649.237 217.792C650.517 219.84 652.65 221.803 655.637 223.68C658.709 225.472 662.848 227.264 668.053 229.056C670.442 229.909 672.96 231.019 675.605 232.384C678.25 233.749 680.682 235.499 682.901 237.632C685.205 239.68 687.082 242.197 688.533 245.184C689.984 248.085 690.709 251.584 690.709 255.68C690.709 259.605 689.941 263.147 688.405 266.304C686.954 269.461 684.906 272.149 682.261 274.368C679.701 276.587 676.757 278.293 673.429 279.488C670.186 280.683 666.773 281.28 663.189 281.28C658.325 281.28 653.802 280.256 649.621 278.208C645.525 276.075 641.898 273.301 638.741 269.888C635.669 266.389 633.152 262.677 631.189 258.752L639.893 252.864ZM761.346 236.48V226.24H822.786V236.48H761.346ZM815.49 190.4H826.37V280H815.49V190.4ZM755.33 190.4H766.21V280H755.33V190.4Z" fill="#00D646"/>
</svg>
